<?xml version="1.0" standalone="no"?>
<!DOCTYPE svg PUBLIC "-//W3C//DTD SVG 20010904//EN"
 "http://www.w3.org/TR/2001/REC-SVG-20010904/DTD/svg10.dtd">
<svg version="1.0" xmlns="http://www.w3.org/2000/svg"
 width="865.000000pt" height="865.000000pt" viewBox="0 0 865.000000 865.000000"
 preserveAspectRatio="xMidYMid meet">
<metadata>
Created by potrace 1.11, written by Peter Selinger 2001-2013
</metadata>
<g transform="translate(0.000000,865.000000) scale(0.100000,-0.100000)"
fill="#000000" stroke="none">
<path d="M2005 8519 c-231 -29 -484 -106 -694 -210 -665 -328 -1111 -961
-1201 -1699 -13 -109 -13 -401 0 -510 50 -408 217 -804 472 -1118 76 -94 417
-442 432 -442 6 0 117 106 246 235 l234 234 -205 208 c-218 221 -277 298 -364
472 -63 127 -111 275 -136 422 -18 106 -20 149 -16 294 8 243 49 409 153 620
206 417 588 708 1064 811 67 15 128 19 285 19 173 0 214 -3 304 -23 198 -45
371 -118 539 -228 75 -49 290 -260 1597 -1565 831 -830 1515 -1509 1520 -1509
6 0 116 106 245 235 l235 235 -1505 1504 c-1601 1599 -1584 1583 -1821 1725
-247 147 -538 248 -827 286 -124 16 -440 18 -557 4z"/>
<path d="M6095 8519 c-391 -49 -779 -213 -1090 -459 -89 -70 -455 -428 -455
-444 0 -6 104 -115 232 -243 l232 -232 180 177 c277 272 421 370 680 461 281
99 622 107 918 20 131 -38 359 -151 463 -229 280 -210 481 -507 565 -835 41
-156 54 -283 47 -444 -13 -285 -94 -532 -254 -776 -61 -92 -181 -215 -1569
-1605 -827 -828 -1504 -1510 -1504 -1515 0 -6 105 -116 234 -244 l235 -235
1488 1490 c819 819 1517 1524 1552 1567 269 331 432 721 482 1157 15 135 7
452 -16 580 -84 472 -290 869 -622 1197 -336 332 -774 547 -1241 608 -124 16
-440 18 -557 4z"/>
<path d="M2109 5213 c-1143 -1145 -1532 -1540 -1581 -1608 -228 -311 -364
-647 -413 -1019 -24 -176 -17 -511 14 -671 84 -445 271 -808 580 -1128 340
-351 766 -569 1261 -643 157 -24 454 -24 610 0 412 63 756 213 1070 468 52 42
174 156 270 252 l175 176 -237 237 -237 237 -193 -189 c-213 -209 -305 -280
-472 -366 -476 -243 -1049 -213 -1501 79 -335 215 -567 556 -657 960 -30 132
-32 451 -5 585 41 201 133 418 248 582 51 73 341 368 1563 1593 l1501 1502
-235 235 c-129 129 -237 235 -240 235 -3 0 -687 -683 -1521 -1517z"/>
<path d="M2107 3882 c-183 -183 -237 -243 -237 -262 0 -20 309 -334 1518
-1541 949 -949 1545 -1536 1592 -1571 312 -230 623 -363 989 -425 83 -14 162
-18 361 -18 279 0 369 10 577 65 380 99 701 286 988 574 344 346 546 747 621
1236 25 158 25 491 0 650 -58 384 -194 710 -422 1017 -32 43 -153 174 -268
291 -158 160 -216 212 -234 212 -18 0 -85 -60 -265 -236 -133 -130 -243 -245
-245 -256 -3 -14 50 -74 195 -221 212 -215 283 -308 370 -480 115 -231 173
-514 152 -755 -58 -669 -531 -1202 -1192 -1344 -136 -29 -398 -31 -532 -4
-263 52 -493 162 -695 332 -41 34 -730 718 -1530 1518 -1160 1161 -1460 1456
-1480 1456 -19 0 -79 -54 -263 -238z"/>
</g>
</svg>
